<svg width="50" height="50" viewBox="0 0 50 50" fill="none" xmlns="http://www.w3.org/2000/svg">
<path d="M33.7158 5.25C34.0284 5.25 34.3288 5.37466 34.5498 5.5957C34.7706 5.81671 34.8945 6.1163 34.8945 6.42871V8.10742H39.4307C40.5009 8.10742 41.5273 8.53241 42.2842 9.28906C43.0411 10.046 43.4668 11.0731 43.4668 12.1436V26.9375L43.5742 27.0127C44.7433 27.8266 45.7197 28.887 46.4346 30.1191C47.1495 31.3516 47.5858 32.7263 47.7119 34.1455C47.838 35.5647 47.6514 36.9948 47.165 38.334C46.6786 39.6731 45.9039 40.889 44.8965 41.8965C43.889 42.9039 42.6731 43.6786 41.334 44.165C39.9948 44.6514 38.5647 44.838 37.1455 44.7119C35.7263 44.5858 34.3516 44.1495 33.1191 43.4346C31.887 42.7197 30.8266 41.7433 30.0127 40.5742L29.9375 40.4668H12.2861C11.2157 40.4668 10.1885 40.0411 9.43164 39.2842C8.67501 38.5273 8.25 37.5009 8.25 36.4307V12.1436C8.25 11.0732 8.67477 10.046 9.43164 9.28906C10.1885 8.53217 11.2157 8.10742 12.2861 8.10742H16.8223V6.42871C16.8223 6.11628 16.9462 5.81671 17.167 5.5957C17.388 5.37466 17.6884 5.25 18.001 5.25C18.3135 5.25008 18.613 5.37473 18.834 5.5957C19.0549 5.81673 19.1797 6.11619 19.1797 6.42871V8.10742H32.5371V6.42871C32.5371 6.11616 32.6618 5.81673 32.8828 5.5957C33.1038 5.37471 33.4033 5.25005 33.7158 5.25ZM40.8311 28.1719C39.4801 27.6123 37.9937 27.4657 36.5596 27.751C35.1254 28.0363 33.8084 28.7405 32.7744 29.7744C31.7405 30.8084 31.0363 32.1254 30.751 33.5596C30.4657 34.9937 30.6123 36.4801 31.1719 37.8311C31.7315 39.182 32.6787 40.337 33.8945 41.1494C35.1103 41.9618 36.5397 42.3955 38.002 42.3955C39.962 42.3932 41.8416 41.6135 43.2275 40.2275C44.6135 38.8416 45.3932 36.962 45.3955 35.002C45.3955 33.5397 44.9618 32.1103 44.1494 30.8945C43.337 29.6787 42.182 28.7315 40.8311 28.1719ZM10.6074 36.4307C10.6074 36.8759 10.7838 37.3034 11.0986 37.6182C11.4134 37.9329 11.8409 38.1094 12.2861 38.1094H28.7656L28.6699 37.7881C28.167 36.1051 28.1283 34.3172 28.5586 32.6143C28.9889 30.9112 29.8722 29.3563 31.1143 28.1143C32.3563 26.8722 33.9112 25.9889 35.6143 25.5586C37.3172 25.1283 39.1051 25.167 40.7881 25.6699L41.1094 25.7656V19.0371H10.6074V36.4307ZM12.2861 10.4648C11.8409 10.4648 11.4134 10.6412 11.0986 10.9561C10.7838 11.2709 10.6074 11.6984 10.6074 12.1436V16.6797H41.1094V12.1436C41.1094 11.6984 40.9329 11.2709 40.6182 10.9561C40.3034 10.6412 39.8759 10.4648 39.4307 10.4648H34.8945V11.4834C34.8945 11.7958 34.7706 12.0954 34.5498 12.3164C34.3288 12.5374 34.0284 12.6621 33.7158 12.6621C33.4033 12.6621 33.1038 12.5374 32.8828 12.3164C32.6618 12.0954 32.5371 11.7959 32.5371 11.4834V10.4648H19.1797V11.4834C19.1797 11.7959 19.0549 12.0954 18.834 12.3164C18.613 12.5374 18.3135 12.662 18.001 12.6621C17.6884 12.6621 17.388 12.5374 17.167 12.3164C16.9462 12.0954 16.8223 11.7958 16.8223 11.4834V10.4648H12.2861Z" fill="black"/>
<path d="M33.7158 5.25C34.0284 5.25 34.3288 5.37466 34.5498 5.5957C34.7706 5.81671 34.8945 6.1163 34.8945 6.42871V8.10742H39.4307C40.5009 8.10742 41.5273 8.53241 42.2842 9.28906C43.0411 10.046 43.4668 11.0731 43.4668 12.1436V26.9375L43.5742 27.0127C44.7433 27.8266 45.7197 28.887 46.4346 30.1191C47.1495 31.3516 47.5858 32.7263 47.7119 34.1455C47.838 35.5647 47.6514 36.9948 47.165 38.334C46.6786 39.6731 45.9039 40.889 44.8965 41.8965C43.889 42.9039 42.6731 43.6786 41.334 44.165C39.9948 44.6514 38.5647 44.838 37.1455 44.7119C35.7263 44.5858 34.3516 44.1495 33.1191 43.4346C31.887 42.7197 30.8266 41.7433 30.0127 40.5742L29.9375 40.4668H12.2861C11.2157 40.4668 10.1885 40.0411 9.43164 39.2842C8.67501 38.5273 8.25 37.5009 8.25 36.4307V12.1436C8.25 11.0732 8.67477 10.046 9.43164 9.28906C10.1885 8.53217 11.2157 8.10742 12.2861 8.10742H16.8223V6.42871C16.8223 6.11628 16.9462 5.81671 17.167 5.5957C17.388 5.37466 17.6884 5.25 18.001 5.25C18.3135 5.25008 18.613 5.37473 18.834 5.5957C19.0549 5.81673 19.1797 6.11619 19.1797 6.42871V8.10742H32.5371V6.42871C32.5371 6.11616 32.6618 5.81673 32.8828 5.5957C33.1038 5.37471 33.4033 5.25005 33.7158 5.25ZM40.8311 28.1719C39.4801 27.6123 37.9937 27.4657 36.5596 27.751C35.1254 28.0363 33.8084 28.7405 32.7744 29.7744C31.7405 30.8084 31.0363 32.1254 30.751 33.5596C30.4657 34.9937 30.6123 36.4801 31.1719 37.8311C31.7315 39.182 32.6787 40.337 33.8945 41.1494C35.1103 41.9618 36.5397 42.3955 38.002 42.3955C39.962 42.3932 41.8416 41.6135 43.2275 40.2275C44.6135 38.8416 45.3932 36.962 45.3955 35.002C45.3955 33.5397 44.9618 32.1103 44.1494 30.8945C43.337 29.6787 42.182 28.7315 40.8311 28.1719ZM10.6074 36.4307C10.6074 36.8759 10.7838 37.3034 11.0986 37.6182C11.4134 37.9329 11.8409 38.1094 12.2861 38.1094H28.7656L28.6699 37.7881C28.167 36.1051 28.1283 34.3172 28.5586 32.6143C28.9889 30.9112 29.8722 29.3563 31.1143 28.1143C32.3563 26.8722 33.9112 25.9889 35.6143 25.5586C37.3172 25.1283 39.1051 25.167 40.7881 25.6699L41.1094 25.7656V19.0371H10.6074V36.4307ZM12.2861 10.4648C11.8409 10.4648 11.4134 10.6412 11.0986 10.9561C10.7838 11.2709 10.6074 11.6984 10.6074 12.1436V16.6797H41.1094V12.1436C41.1094 11.6984 40.9329 11.2709 40.6182 10.9561C40.3034 10.6412 39.8759 10.4648 39.4307 10.4648H34.8945V11.4834C34.8945 11.7958 34.7706 12.0954 34.5498 12.3164C34.3288 12.5374 34.0284 12.6621 33.7158 12.6621C33.4033 12.6621 33.1038 12.5374 32.8828 12.3164C32.6618 12.0954 32.5371 11.7959 32.5371 11.4834V10.4648H19.1797V11.4834C19.1797 11.7959 19.0549 12.0954 18.834 12.3164C18.613 12.5374 18.3135 12.662 18.001 12.6621C17.6884 12.6621 17.388 12.5374 17.167 12.3164C16.9462 12.0954 16.8223 11.7958 16.8223 11.4834V10.4648H12.2861Z" fill="url(#paint0_linear_499_1215)"/>
<path d="M33.7158 5.25C34.0284 5.25 34.3288 5.37466 34.5498 5.5957C34.7706 5.81671 34.8945 6.1163 34.8945 6.42871V8.10742H39.4307C40.5009 8.10742 41.5273 8.53241 42.2842 9.28906C43.0411 10.046 43.4668 11.0731 43.4668 12.1436V26.9375L43.5742 27.0127C44.7433 27.8266 45.7197 28.887 46.4346 30.1191C47.1495 31.3516 47.5858 32.7263 47.7119 34.1455C47.838 35.5647 47.6514 36.9948 47.165 38.334C46.6786 39.6731 45.9039 40.889 44.8965 41.8965C43.889 42.9039 42.6731 43.6786 41.334 44.165C39.9948 44.6514 38.5647 44.838 37.1455 44.7119C35.7263 44.5858 34.3516 44.1495 33.1191 43.4346C31.887 42.7197 30.8266 41.7433 30.0127 40.5742L29.9375 40.4668H12.2861C11.2157 40.4668 10.1885 40.0411 9.43164 39.2842C8.67501 38.5273 8.25 37.5009 8.25 36.4307V12.1436C8.25 11.0732 8.67477 10.046 9.43164 9.28906C10.1885 8.53217 11.2157 8.10742 12.2861 8.10742H16.8223V6.42871C16.8223 6.11628 16.9462 5.81671 17.167 5.5957C17.388 5.37466 17.6884 5.25 18.001 5.25C18.3135 5.25008 18.613 5.37473 18.834 5.5957C19.0549 5.81673 19.1797 6.11619 19.1797 6.42871V8.10742H32.5371V6.42871C32.5371 6.11616 32.6618 5.81673 32.8828 5.5957C33.1038 5.37471 33.4033 5.25005 33.7158 5.25ZM40.8311 28.1719C39.4801 27.6123 37.9937 27.4657 36.5596 27.751C35.1254 28.0363 33.8084 28.7405 32.7744 29.7744C31.7405 30.8084 31.0363 32.1254 30.751 33.5596C30.4657 34.9937 30.6123 36.4801 31.1719 37.8311C31.7315 39.182 32.6787 40.337 33.8945 41.1494C35.1103 41.9618 36.5397 42.3955 38.002 42.3955C39.962 42.3932 41.8416 41.6135 43.2275 40.2275C44.6135 38.8416 45.3932 36.962 45.3955 35.002C45.3955 33.5397 44.9618 32.1103 44.1494 30.8945C43.337 29.6787 42.182 28.7315 40.8311 28.1719ZM10.6074 36.4307C10.6074 36.8759 10.7838 37.3034 11.0986 37.6182C11.4134 37.9329 11.8409 38.1094 12.2861 38.1094H28.7656L28.6699 37.7881C28.167 36.1051 28.1283 34.3172 28.5586 32.6143C28.9889 30.9112 29.8722 29.3563 31.1143 28.1143C32.3563 26.8722 33.9112 25.9889 35.6143 25.5586C37.3172 25.1283 39.1051 25.167 40.7881 25.6699L41.1094 25.7656V19.0371H10.6074V36.4307ZM12.2861 10.4648C11.8409 10.4648 11.4134 10.6412 11.0986 10.9561C10.7838 11.2709 10.6074 11.6984 10.6074 12.1436V16.6797H41.1094V12.1436C41.1094 11.6984 40.9329 11.2709 40.6182 10.9561C40.3034 10.6412 39.8759 10.4648 39.4307 10.4648H34.8945V11.4834C34.8945 11.7958 34.7706 12.0954 34.5498 12.3164C34.3288 12.5374 34.0284 12.6621 33.7158 12.6621C33.4033 12.6621 33.1038 12.5374 32.8828 12.3164C32.6618 12.0954 32.5371 11.7959 32.5371 11.4834V10.4648H19.1797V11.4834C19.1797 11.7959 19.0549 12.0954 18.834 12.3164C18.613 12.5374 18.3135 12.662 18.001 12.6621C17.6884 12.6621 17.388 12.5374 17.167 12.3164C16.9462 12.0954 16.8223 11.7958 16.8223 11.4834V10.4648H12.2861Z" stroke="white" stroke-width="0.5"/>
<path d="M41.4949 35.1518L39.4276 34.1189V30.7158C39.4276 30.3369 39.2771 29.9735 39.0092 29.7056C38.7413 29.4376 38.3779 29.2871 37.999 29.2871C37.6201 29.2871 37.2567 29.4376 36.9888 29.7056C36.7208 29.9735 36.5703 30.3369 36.5703 30.7158V35.0018C36.5702 35.2673 36.644 35.5275 36.7836 35.7534C36.9232 35.9793 37.1229 36.1618 37.3604 36.2804L40.2177 37.7091C40.5568 37.8785 40.9493 37.9062 41.3089 37.7862C41.4869 37.7267 41.6515 37.6328 41.7933 37.5098C41.935 37.3867 42.0511 37.237 42.135 37.0691C42.2188 36.9011 42.2688 36.7184 42.282 36.5311C42.2952 36.3439 42.2715 36.1559 42.212 35.9779C42.1526 35.7998 42.0587 35.6352 41.9356 35.4935C41.8126 35.3518 41.6628 35.2357 41.4949 35.1518Z" fill="black"/>
<path d="M41.4949 35.1518L39.4276 34.1189V30.7158C39.4276 30.3369 39.2771 29.9735 39.0092 29.7056C38.7413 29.4376 38.3779 29.2871 37.999 29.2871C37.6201 29.2871 37.2567 29.4376 36.9888 29.7056C36.7208 29.9735 36.5703 30.3369 36.5703 30.7158V35.0018C36.5702 35.2673 36.644 35.5275 36.7836 35.7534C36.9232 35.9793 37.1229 36.1618 37.3604 36.2804L40.2177 37.7091C40.5568 37.8785 40.9493 37.9062 41.3089 37.7862C41.4869 37.7267 41.6515 37.6328 41.7933 37.5098C41.935 37.3867 42.0511 37.237 42.135 37.0691C42.2188 36.9011 42.2688 36.7184 42.282 36.5311C42.2952 36.3439 42.2715 36.1559 42.212 35.9779C42.1526 35.7998 42.0587 35.6352 41.9356 35.4935C41.8126 35.3518 41.6628 35.2357 41.4949 35.1518Z" fill="url(#paint1_linear_499_1215)"/>
<path d="M19.4305 23.5742H16.5732C16.1943 23.5742 15.8309 23.7247 15.563 23.9927C15.2951 24.2606 15.1445 24.624 15.1445 25.0029C15.1445 25.3818 15.2951 25.7452 15.563 26.0131C15.8309 26.281 16.1943 26.4316 16.5732 26.4316H19.4305C19.8094 26.4316 20.1728 26.281 20.4408 26.0131C20.7087 25.7452 20.8592 25.3818 20.8592 25.0029C20.8592 24.624 20.7087 24.2606 20.4408 23.9927C20.1728 23.7247 19.8094 23.5742 19.4305 23.5742Z" fill="black"/>
<path d="M19.4305 23.5742H16.5732C16.1943 23.5742 15.8309 23.7247 15.563 23.9927C15.2951 24.2606 15.1445 24.624 15.1445 25.0029C15.1445 25.3818 15.2951 25.7452 15.563 26.0131C15.8309 26.281 16.1943 26.4316 16.5732 26.4316H19.4305C19.8094 26.4316 20.1728 26.281 20.4408 26.0131C20.7087 25.7452 20.8592 25.3818 20.8592 25.0029C20.8592 24.624 20.7087 24.2606 20.4408 23.9927C20.1728 23.7247 19.8094 23.5742 19.4305 23.5742Z" fill="url(#paint2_linear_499_1215)"/>
<path d="M29.4295 25.0029C29.4295 24.624 29.279 24.2606 29.0111 23.9927C28.7431 23.7247 28.3798 23.5742 28.0008 23.5742H25.1435C24.7646 23.5742 24.4012 23.7247 24.1333 23.9927C23.8654 24.2606 23.7148 24.624 23.7148 25.0029C23.7148 25.3818 23.8654 25.7452 24.1333 26.0131C24.4012 26.281 24.7646 26.4316 25.1435 26.4316H28.0008C28.3798 26.4316 28.7431 26.281 29.0111 26.0131C29.279 25.7452 29.4295 25.3818 29.4295 25.0029Z" fill="black"/>
<path d="M29.4295 25.0029C29.4295 24.624 29.279 24.2606 29.0111 23.9927C28.7431 23.7247 28.3798 23.5742 28.0008 23.5742H25.1435C24.7646 23.5742 24.4012 23.7247 24.1333 23.9927C23.8654 24.2606 23.7148 24.624 23.7148 25.0029C23.7148 25.3818 23.8654 25.7452 24.1333 26.0131C24.4012 26.281 24.7646 26.4316 25.1435 26.4316H28.0008C28.3798 26.4316 28.7431 26.281 29.0111 26.0131C29.279 25.7452 29.4295 25.3818 29.4295 25.0029Z" fill="url(#paint3_linear_499_1215)"/>
<path d="M19.4305 30.7148H16.5732C16.1943 30.7148 15.8309 30.8654 15.563 31.1333C15.2951 31.4012 15.1445 31.7646 15.1445 32.1435C15.1445 32.5224 15.2951 32.8858 15.563 33.1537C15.8309 33.4217 16.1943 33.5722 16.5732 33.5722H19.4305C19.8094 33.5722 20.1728 33.4217 20.4408 33.1537C20.7087 32.8858 20.8592 32.5224 20.8592 32.1435C20.8592 31.7646 20.7087 31.4012 20.4408 31.1333C20.1728 30.8654 19.8094 30.7148 19.4305 30.7148Z" fill="black"/>
<path d="M19.4305 30.7148H16.5732C16.1943 30.7148 15.8309 30.8654 15.563 31.1333C15.2951 31.4012 15.1445 31.7646 15.1445 32.1435C15.1445 32.5224 15.2951 32.8858 15.563 33.1537C15.8309 33.4217 16.1943 33.5722 16.5732 33.5722H19.4305C19.8094 33.5722 20.1728 33.4217 20.4408 33.1537C20.7087 32.8858 20.8592 32.5224 20.8592 32.1435C20.8592 31.7646 20.7087 31.4012 20.4408 31.1333C20.1728 30.8654 19.8094 30.7148 19.4305 30.7148Z" fill="url(#paint4_linear_499_1215)"/>
<defs>
<linearGradient id="paint0_linear_499_1215" x1="28" y1="5" x2="28" y2="45" gradientUnits="userSpaceOnUse">
<stop stop-color="#F74C57"/>
<stop offset="1" stop-color="#BE000C"/>
</linearGradient>
<linearGradient id="paint1_linear_499_1215" x1="39.4279" y1="29.2871" x2="39.4279" y2="37.8597" gradientUnits="userSpaceOnUse">
<stop stop-color="#F74C57"/>
<stop offset="1" stop-color="#BE000C"/>
</linearGradient>
<linearGradient id="paint2_linear_499_1215" x1="18.0019" y1="23.5742" x2="18.0019" y2="26.4316" gradientUnits="userSpaceOnUse">
<stop stop-color="#F74C57"/>
<stop offset="1" stop-color="#BE000C"/>
</linearGradient>
<linearGradient id="paint3_linear_499_1215" x1="26.5722" y1="23.5742" x2="26.5722" y2="26.4316" gradientUnits="userSpaceOnUse">
<stop stop-color="#F74C57"/>
<stop offset="1" stop-color="#BE000C"/>
</linearGradient>
<linearGradient id="paint4_linear_499_1215" x1="18.0019" y1="30.7148" x2="18.0019" y2="33.5722" gradientUnits="userSpaceOnUse">
<stop stop-color="#F74C57"/>
<stop offset="1" stop-color="#BE000C"/>
</linearGradient>
</defs>
</svg>
